<svg xmlns="http://www.w3.org/2000/svg" width="1024" height="1024" viewBox="0 0 1024 1024">
<rect x="439.5" y="503" width="33" height="206" rx="16.5" fill="#b8b8b8"/><rect x="551.5" y="503" width="33" height="206" rx="16.5" fill="#b8b8b8"/><rect x="383.5" y="547" width="33" height="118" rx="16.5" fill="#a3a3a3"/><rect x="607.5" y="547" width="33" height="118" rx="16.5" fill="#a3a3a3"/><rect x="327.5" y="522" width="33" height="168" rx="16.5" fill="#8f8f8f"/><rect x="663.5" y="522" width="33" height="168" rx="16.5" fill="#8f8f8f"/><rect x="271.5" y="564" width="33" height="84" rx="16.5" fill="#7d7d7d"/><rect x="719.5" y="564" width="33" height="84" rx="16.5" fill="#7d7d7d"/><rect x="495.5" y="467" width="33" height="278" rx="16.5" fill="#cccccc"/><path d="M235.9,540.3 A277,277 0 0 1 788.1,540.3" fill="none" stroke="#e6e6e6" stroke-width="58" stroke-linecap="round"/><path d="M235.9,540.3 A277,277 0 0 1 788.1,540.3" fill="none" stroke="#d6d6d6" stroke-width="24" stroke-linecap="round"/><rect x="172" y="508" width="128" height="172" rx="56" fill="#e6e6e6"/><rect x="198" y="534" width="76" height="120" rx="30" fill="#949494"/><rect x="724" y="508" width="128" height="172" rx="56" fill="#e6e6e6"/><rect x="750" y="534" width="76" height="120" rx="30" fill="#949494"/>
</svg>